<?xml version="1.0" standalone="no"?>
<!DOCTYPE svg PUBLIC "-//W3C//DTD SVG 20010904//EN"
        "http://www.w3.org/TR/2001/REC-SVG-20010904/DTD/svg10.dtd">
<svg version="1.0" xmlns="http://www.w3.org/2000/svg"
     width="602.000000pt" height="602.000000pt" viewBox="0 0 602.000000 602.000000"
     preserveAspectRatio="xMidYMid meet">
    <metadata>
        Created by potrace 1.14, written by Peter Selinger 2001-2017
    </metadata>
    <g transform="translate(0.000000,602.000000) scale(0.100000,-0.100000)"
       fill="#000000" stroke="none">
        <path d="M4268 4875 c-2 -1 -25 -5 -53 -8 -133 -14 -385 -100 -555 -190 -168
-89 -451 -293 -620 -447 -173 -158 -273 -171 -520 -72 -79 32 -209 88 -325
142 -140 65 -332 148 -415 180 -85 33 -180 44 -200 24 -5 -5 9 -8 34 -6 48 4
112 -11 141 -32 15 -11 7 -10 -30 3 -60 23 -119 19 -157 -9 -19 -14 -28 -17
-29 -8 -1 7 -9 -12 -19 -42 -19 -57 -27 -196 -11 -186 5 4 12 -7 16 -23 3 -16
26 -61 50 -100 24 -39 47 -80 50 -92 4 -12 14 -30 24 -41 58 -70 67 -78 104
-81 20 -3 45 -11 55 -19 22 -19 216 -138 262 -160 19 -10 59 -28 89 -42 l53
-24 -129 -86 c-71 -47 -165 -120 -209 -161 -43 -42 -98 -85 -122 -96 -90 -42
-215 -15 -387 83 -268 154 -319 173 -423 166 -161 -12 -229 -133 -171 -308 39
-120 136 -229 291 -327 l88 -55 -38 -27 c-20 -14 -49 -34 -64 -44 -57 -36
-196 -154 -288 -243 -122 -119 -176 -160 -357 -275 -175 -109 -218 -142 -296
-223 -68 -70 -97 -121 -97 -169 0 -43 29 -72 62 -62 34 11 142 67 228 118 42
24 140 77 218 116 118 60 324 173 562 308 105 60 351 186 425 218 165 70 227
65 445 -42 144 -70 312 -145 530 -238 74 -31 148 -63 164 -71 16 -8 35 -14 43
-14 23 0 14 -14 -30 -47 -65 -50 -91 -70 -226 -182 -298 -247 -423 -341 -576
-431 -146 -86 -195 -120 -251 -175 -72 -70 -115 -173 -92 -219 23 -43 84 -19
550 213 550 274 603 303 823 456 179 124 259 161 361 164 82 3 142 -16 309
-97 162 -79 243 -111 375 -147 160 -43 260 -76 324 -105 33 -15 86 -39 116
-53 80 -36 120 -47 180 -48 47 -2 116 20 136 43 16 17 15 20 -32 65 -170 162
-500 383 -859 577 -38 21 -75 43 -82 50 -9 8 42 44 209 146 121 74 268 169
327 211 58 42 125 86 149 98 51 26 136 39 154 23 7 -6 58 -28 113 -50 55 -23
123 -52 151 -66 134 -66 379 -129 500 -130 104 -1 121 22 80 102 -39 75 -214
196 -474 326 -73 36 -132 70 -132 74 0 5 12 15 28 23 41 21 261 170 402 274
170 124 219 157 408 269 234 140 309 204 361 310 84 171 -48 301 -297 292
-117 -4 -220 -34 -377 -111 -205 -101 -345 -197 -705 -484 -188 -150 -268
-195 -340 -194 -58 2 -97 19 -325 149 -301 170 -393 209 -471 202 -19 -1 -38
2 -42 8 -4 6 -13 13 -21 16 -9 2 3 14 31 31 44 26 298 204 308 216 9 11 302
225 365 268 33 22 87 55 120 73 216 120 297 208 299 324 0 33 -3 73 -7 88 -9
35 -51 76 -93 94 -29 12 -157 27 -166 19z m-1293 -1549 c33 -8 105 -33 160
-56 122 -51 230 -89 270 -96 39 -6 151 -52 191 -79 17 -11 58 -38 90 -61 33
-23 65 -43 73 -46 8 -2 -29 -29 -85 -62 -146 -85 -282 -185 -345 -254 -104
-114 -175 -117 -364 -14 -33 18 -76 42 -95 54 -80 48 -126 70 -360 173 -248
109 -276 124 -252 132 7 3 76 52 155 109 267 195 392 240 562 200z"/>
    </g>
</svg>
